<?xml version="1.0" encoding="UTF-8"?>
<svg version="1.1" xmlns="http://www.w3.org/2000/svg" width="180" height="180">
<path d="M0 0 C59.4 0 118.8 0 180 0 C180 59.4 180 118.8 180 180 C120.6 180 61.2 180 0 180 C0 120.6 0 61.2 0 0 Z " fill="#FBFBFB" transform="translate(0,0)"/>
<path d="M0 0 C1.3974719 1.18227185 2.77204955 2.39202817 4.125 3.625 C4.93195313 4.34042969 5.73890625 5.05585938 6.5703125 5.79296875 C21.64443724 19.92207955 31.16834944 39.57086414 32.328125 60.24609375 C32.59284965 81.79909255 27.06741024 99.33393991 14.125 116.625 C13.465 117.615 12.805 118.605 12.125 119.625 C11.465 119.625 10.805 119.625 10.125 119.625 C9.78855469 120.46804687 9.78855469 120.46804687 9.4453125 121.328125 C3.33947731 131.95011049 -11.50284864 138.58840472 -22.53515625 142.58984375 C-24.875 142.625 -24.875 142.625 -27.47924805 141.10766602 C-30.62073584 137.85221005 -30.58965255 135.23670447 -30.546875 130.9375 C-30.55962463 130.19798096 -30.57237427 129.45846191 -30.58551025 128.6965332 C-30.6217681 126.33896475 -30.62451862 123.98282243 -30.625 121.625 C-30.64665741 119.26771076 -30.6751887 116.91063498 -30.70733643 114.5534668 C-30.72500779 113.08885793 -30.73537019 111.62413777 -30.73748779 110.15942383 C-30.75643258 106.83757119 -30.84798844 103.80199799 -31.875 100.625 C-31.18535156 100.45484375 -30.49570313 100.2846875 -29.78515625 100.109375 C-17.18437688 96.85979129 -5.30122716 91.91813834 2.125 80.625 C7.49656906 70.98286672 8.02037818 58.55474234 5.13671875 48.01171875 C3.4243603 43.754679 1.46193847 39.94809791 -1.25 36.25 C-3.39295815 32.78829837 -2.76347253 31.54908702 -1.875 27.625 C-1.49769959 21.23991608 -1.72709772 15.66597515 -3.875 9.625 C-11.9485638 10.75292435 -19.10472137 12.14761905 -25.23828125 17.8046875 C-27.875 19.625 -27.875 19.625 -30.64453125 19.578125 C-31.64871094 19.34609375 -32.65289062 19.1140625 -33.6875 18.875 C-44.12916341 16.88159153 -54.62749065 16.53141227 -64.875 19.625 C-69.35411279 20.13648107 -71.34635413 18.95161949 -74.875 16.25 C-79.66265247 12.6143764 -83.65874694 10.53988833 -89.6875 10 C-90.47769531 9.92523438 -91.26789063 9.85046875 -92.08203125 9.7734375 C-92.67371094 9.72445312 -93.26539063 9.67546875 -93.875 9.625 C-95.70362198 16.53131335 -97.58791734 23.8877258 -94.5 30.625 C-93.875 33.625 -93.875 33.625 -94.9375 35.640625 C-96.01294571 37.17851237 -97.10235811 38.70669629 -98.203125 40.2265625 C-104.65412409 49.48103316 -105.21024533 59.52524734 -103.40234375 70.4921875 C-100.74214627 80.71881493 -94.69522004 88.00412766 -85.875 93.625 C-79.56335864 97.12396696 -72.83872702 98.86203114 -65.875 100.625 C-66.535 104.585 -67.195 108.545 -67.875 112.625 C-73.32555818 114.44185273 -78.72105959 114.47043773 -84 112.0625 C-88.25288928 109.67985721 -91.85830248 106.45243498 -94.875 102.625 C-94.875 101.965 -94.875 101.305 -94.875 100.625 C-99.1255466 98.76538586 -103.37433525 97.69295435 -107.875 96.625 C-106.19608917 99.70300319 -104.34000632 102.28772498 -102 104.875 C-99.07353507 108.18633501 -97.04950008 111.68062183 -95.05078125 115.609375 C-92.71918503 119.6063971 -89.98631582 121.42311898 -85.61328125 122.99609375 C-79.49872218 124.40043613 -73.12533722 124.40502454 -66.875 124.625 C-66.79339252 126.52010699 -66.73553541 128.41624504 -66.6875 130.3125 C-66.63529297 131.89611328 -66.63529297 131.89611328 -66.58203125 133.51171875 C-66.91814753 137.08351447 -67.58573838 138.86894751 -69.875 141.625 C-73.29163789 143.16429799 -74.88858997 142.6206518 -78.4765625 141.47265625 C-79.82584128 140.89628319 -81.16678465 140.30011404 -82.5 139.6875 C-83.20930664 139.36612061 -83.91861328 139.04474121 -84.64941406 138.71362305 C-106.08330963 128.66436005 -119.920143 110.48323352 -127.875 88.625 C-134.11807798 69.23395568 -132.11602795 47.58116336 -123.25 29.375 C-113.12400873 9.80940373 -97.10408305 -4.9398195 -76.16796875 -12.34375 C-49.81044523 -20.59806341 -22.37495204 -16.58562879 0 0 Z " fill="#040404" transform="translate(138.875,23.375)"/>
<path d="M0 0 C5.23631171 -0.51085968 8.95795521 0.70849149 13 4 C15.2047575 6.53910534 17.14352137 9.19828133 19 12 C16.97480032 14.40023666 15.59488365 15.81695888 12.5625 16.75 C8.86071439 15.66655055 8.0879432 13.36893128 6.26953125 10.1015625 C4.94658423 7.72193786 4.94658423 7.72193786 2.1875 5.1875 C1.465625 4.465625 0.74375 3.74375 0 3 C0 2.01 0 1.02 0 0 Z " fill="#F5F5F5" transform="translate(31,120)"/>
<path d="M0 0 C5.63470383 -0.5497272 8.38987758 1.04952165 13 4 C11.125 5.0625 11.125 5.0625 9 6 C8.34 5.67 7.68 5.34 7 5 C6.67 5.99 6.34 6.98 6 8 C1.3125 4.38671875 1.3125 4.38671875 0 3 C0 2.01 0 1.02 0 0 Z " fill="#D2D2D2" transform="translate(31,120)"/>
<path d="M0 0 C4.43090471 1.20842856 6.98112756 2.51668565 10 6 C8.68 6.33 7.36 6.66 6 7 C6 6.34 6 5.68 6 5 C4.824375 4.7834375 4.824375 4.7834375 3.625 4.5625 C1 4 1 4 -1 3 C-0.67 2.01 -0.34 1.02 0 0 Z " fill="#0F0F0F" transform="translate(125,16)"/>
<path d="M0 0 C0.66 0 1.32 0 2 0 C2 0.66 2 1.32 2 2 C2.66 2 3.32 2 4 2 C2.5901639 6.2295083 -0.16421847 7.08210924 -4 9 C-2.80100302 5.9168649 -1.52299523 2.93720508 0 0 Z M-5 9 C-4.67 9.66 -4.34 10.32 -4 11 C-4.66 10.67 -5.32 10.34 -6 10 C-5.67 9.67 -5.34 9.34 -5 9 Z " fill="#EBEBEB" transform="translate(163,123)"/>
<path d="M0 0 C0.66 0.33 1.32 0.66 2 1 C1.33333333 3 0.66666667 5 0 7 C-1.9375 7.5625 -1.9375 7.5625 -4 8 C-4.66 8.66 -5.32 9.32 -6 10 C-6 6.41087588 -5.33563446 5.89142971 -3 3.3125 C-2.443125 2.68988281 -1.88625 2.06726563 -1.3125 1.42578125 C-0.879375 0.95527344 -0.44625 0.48476562 0 0 Z " fill="#161616" transform="translate(141,104)"/>
<path d="M0 0 C0.99 0.33 1.98 0.66 3 1 C2.34 2.65 1.68 4.3 1 6 C-0.32 6 -1.64 6 -3 6 C-2.625 3.5625 -2.625 3.5625 -2 1 C-1.34 0.67 -0.68 0.34 0 0 Z " fill="#ECECEC" transform="translate(139,101)"/>
<path d="M0 0 C2.31 0.33 4.62 0.66 7 1 C6.67 1.99 6.34 2.98 6 4 C4.35 3.67 2.7 3.34 1 3 C0.67 2.01 0.34 1.02 0 0 Z " fill="#F8F8F8" transform="translate(31,121)"/>
<path d="M0 0 C0.66 0.33 1.32 0.66 2 1 C0.25 3 0.25 3 -2 5 C-3.32 5 -4.64 5 -6 5 C-6 5.66 -6 6.32 -6 7 C-6.66 6.67 -7.32 6.34 -8 6 C-8 5.34 -8 4.68 -8 4 C-6.71349294 3.30289269 -5.42059335 2.61757124 -4.125 1.9375 C-3.40570313 1.55464844 -2.68640625 1.17179688 -1.9453125 0.77734375 C-1.30335937 0.52082031 -0.66140625 0.26429688 0 0 Z " fill="#E3E3E3" transform="translate(129,159)"/>
<path d="M0 0 C0.33 1.32 0.66 2.64 1 4 C0.01 4.495 0.01 4.495 -1 5 C-1.33 5.99 -1.66 6.98 -2 8 C-2.99 7.67 -3.98 7.34 -5 7 C-3.35 4.69 -1.7 2.38 0 0 Z " fill="#E3E3E3" transform="translate(156,135)"/>
<path d="M0 0 C1.98 0.99 3.96 1.98 6 3 C5.34 3.66 4.68 4.32 4 5 C1.73725212 4.64644564 0.04911148 4.02455574 -2 3 C-1 1 -1 1 0 0 Z " fill="#EFEFEF" transform="translate(41,154)"/>
<path d="M0 0 C2.5 2.3125 2.5 2.3125 5 5 C5 5.99 5 6.98 5 8 C2.5 5.6875 2.5 5.6875 0 3 C0 2.01 0 1.02 0 0 Z " fill="#EAEAEA" transform="translate(41,104)"/>
</svg>
