<?xml version="1.0" encoding="UTF-8"?>
<svg version="1.1" xmlns="http://www.w3.org/2000/svg" width="180" height="180">
<path d="M0 0 C59.4 0 118.8 0 180 0 C180 59.4 180 118.8 180 180 C120.6 180 61.2 180 0 180 C0 120.6 0 61.2 0 0 Z " fill="#FAFAFA" transform="translate(0,0)"/>
<path d="M0 0 C59.4 0 118.8 0 180 0 C180 59.4 180 118.8 180 180 C120.6 180 61.2 180 0 180 C0 120.6 0 61.2 0 0 Z M26.1875 28.75 C19.39084181 37.10783954 17.86076001 45.70529861 17.82299805 56.27758789 C17.81642685 57.08663574 17.80985565 57.89568359 17.80308533 58.72924805 C17.78345662 61.3937186 17.77171096 64.05813297 17.76171875 66.72265625 C17.75764322 67.63869566 17.7535677 68.55473507 17.74936867 69.49853325 C17.72854888 74.35050095 17.71423144 79.20244074 17.70483398 84.05444336 C17.69379863 89.03492973 17.65942015 94.01496578 17.61966228 98.99529362 C17.59336048 102.85178894 17.58513002 106.7081793 17.58155251 110.56475639 C17.57671887 112.39895087 17.56519839 114.2331417 17.54651451 116.06724739 C17.25914093 135.21855961 17.25914093 135.21855961 26.25 151.5625 C38.49720216 163.92996928 55.63818107 163.08015736 71.98486328 163.16459656 C73.2686084 163.16570938 74.55235352 163.1668222 75.875 163.16796875 C77.25634798 163.17119686 78.63769564 163.17456198 80.01904297 163.17805481 C82.88965649 163.18398171 85.76024019 163.18590124 88.63085938 163.18530273 C92.26793306 163.18520102 95.90481201 163.19889268 99.5418396 163.21607494 C102.38697145 163.22730973 105.23205773 163.22921853 108.07720947 163.22869301 C110.05653338 163.23040938 112.03584308 163.24116433 114.01513672 163.25224304 C128.58355977 163.21595265 142.18218597 162.49713777 153.375 152.3125 C163.9800741 140.85217799 163.31317868 123.77559625 163.265625 109.09375 C163.26697738 107.5964756 163.26892264 106.09920163 163.27142334 104.60192871 C163.27434772 101.48571533 163.27016461 98.36961773 163.26074219 95.25341797 C163.24934927 91.29671761 163.25592331 87.34028877 163.26788712 83.38359833 C163.27517901 80.29829939 163.27278452 77.21306285 163.26763153 74.12776184 C163.2663152 72.67039455 163.26787033 71.21302125 163.27259064 69.75566101 C163.31399766 53.38696011 162.80630334 38.56352424 151.3515625 26.1640625 C140.91752753 16.56197716 126.91281747 17.56343021 113.6484375 17.63671875 C111.77999878 17.63723847 109.91155952 17.63671644 108.04312134 17.63520813 C104.14487445 17.6352974 100.24683634 17.64563483 96.34863281 17.66381836 C91.37137324 17.68653534 86.39441718 17.68703886 81.41711998 17.68030071 C77.56506692 17.67694779 73.7130821 17.68361519 69.86104202 17.69342995 C68.02636701 17.69725704 66.19168438 17.69844059 64.35700607 17.6968441 C61.78782616 17.69647011 59.21902491 17.70918499 56.64990234 17.7253418 C55.90472855 17.72286438 55.15955475 17.72038696 54.39179993 17.71783447 C43.50305168 17.82623274 33.78322008 20.61982627 26.1875 28.75 Z " fill="#060606" transform="translate(0,0)"/>
<path d="M0 0 C11.04629562 6.48631255 19.16947815 15.99176769 22.79785156 28.46948242 C25.34367751 40.4390608 23.7282447 53.69947582 17.69921875 64.26171875 C10.83787097 74.75000324 0.74457299 82.91120089 -11.7578125 85.55859375 C-26.00779268 86.87757258 -38.25474565 85.62098481 -50.0703125 76.93359375 C-58.38715639 69.76810447 -64.98640536 60.52299314 -66.7578125 49.55859375 C-67.6800377 35.04488565 -66.24728364 22.831236 -56.96484375 11 C-51.57448905 5.03721825 -45.19771961 0.59499684 -37.7578125 -2.44140625 C-36.87996094 -2.79976562 -36.00210938 -3.158125 -35.09765625 -3.52734375 C-23.81103956 -6.61631253 -10.29181183 -5.37914811 0 0 Z " fill="#050505" transform="translate(111.7578125,49.44140625)"/>
<path d="M0 0 C59.4 0 118.8 0 180 0 C180 59.4 180 118.8 180 180 C120.6 180 61.2 180 0 180 C0 120.6 0 61.2 0 0 Z M14 18 C5.33320173 28.47838556 1.8582542 41.08073989 1.83886719 54.46118164 C1.83390228 55.28973663 1.82893738 56.11829163 1.82382202 56.97195435 C1.8092709 59.7013636 1.80240865 62.43071465 1.796875 65.16015625 C1.79404762 66.09826078 1.79122025 67.03636532 1.78830719 68.00289726 C1.77333963 72.97157953 1.764096 77.94023297 1.75976562 82.90893555 C1.75429803 88.01040503 1.73029922 93.11160533 1.70179367 98.21299076 C1.68305035 102.16213213 1.67795541 106.11121031 1.67642975 110.06039238 C1.67342682 111.93922833 1.6654794 113.81806381 1.65224457 115.69685555 C1.52796355 134.70272151 3.75159398 151.47615198 17.60546875 165.8125 C33.12533212 179.99051548 55.51525019 179.13383826 75.2890625 179.203125 C76.59418793 179.20882507 77.89931335 179.21452515 79.24398804 179.22039795 C81.98509089 179.23078369 84.72616552 179.23670677 87.46728516 179.24023438 C90.22848786 179.2446108 92.98937667 179.25849583 95.75048828 179.28125 C115.3713267 179.45436784 115.3713267 179.45436784 134.8984375 177.734375 C135.70407135 177.62603333 136.5097052 177.51769165 137.3397522 177.40606689 C150.65147351 175.26757936 162.03884058 167.76585672 170 157 C179.40863285 141.89731142 179.15874288 124.86769956 179.16796875 107.63671875 C179.17119568 106.19147206 179.17456073 104.74622568 179.17805481 103.30097961 C179.18399213 100.29154708 179.18590028 97.28214304 179.18530273 94.27270508 C179.18520129 90.46428948 179.19885985 86.65606103 179.21607494 82.84768963 C179.22732891 79.86779482 179.22921791 76.88794341 179.22869301 73.90802956 C179.22985283 72.50616625 179.2341582 71.10430104 179.24202538 69.70245934 C179.34638863 49.19319908 177.55626796 31.07542136 163.41796875 15.2265625 C149.47055981 1.87942179 131.35452183 1.68378468 113.31640625 1.69921875 C111.41031299 1.69532343 109.50422059 1.69098706 107.59812927 1.68623352 C103.6183693 1.67880613 99.6386981 1.67903751 95.65893555 1.68432617 C90.58775418 1.69012076 85.51693805 1.67317292 80.44581699 1.6499815 C76.51386939 1.63517068 72.58200833 1.63438233 68.65003777 1.63749123 C66.78154718 1.63698186 64.91305124 1.63181729 63.04458809 1.62167931 C44.84232648 1.53500793 27.03888661 3.78907864 14 18 Z " fill="#FAFAFA" transform="translate(0,0)"/>
<path d="M0 0 C8.29039878 5.15586638 12.49425193 12.09299097 15.2109375 21.375 C16.56023196 28.66637966 13.90857786 36.16834599 10.5234375 42.5625 C4.77778859 49.55045138 -1.34980125 54.70964694 -10.62109375 55.84375 C-21.22112892 55.92696912 -28.57631616 54.37282411 -36.6640625 47.1875 C-43.32955278 39.82867267 -44.52812669 31.71338907 -44.234375 22 C-43.27475778 14.18837909 -39.51052261 8.08958895 -33.7109375 2.84765625 C-24.17617423 -4.45845301 -10.82685187 -5.17962348 0 0 Z " fill="#FBFBFB" transform="translate(104.7890625,63.625)"/>
<path d="M0 0 C30.50482873 -0.05438812 60.99983523 -0.06439699 91.5 0.5 C94.32810848 0.54916087 97.15624119 0.59685284 99.984375 0.64453125 C106.65634777 0.75776526 113.32820725 0.87661726 120 1 C120 1.33 120 1.66 120 2 C119.0995697 2.00586624 118.1991394 2.01173248 117.27142334 2.01777649 C108.73962768 2.07594691 100.20808705 2.14816088 91.67654037 2.23571491 C87.2915408 2.28023183 82.90663016 2.31952777 78.52148438 2.34643555 C74.28080079 2.3726566 70.04046292 2.41318803 65.79999542 2.46318626 C64.19112739 2.47972899 62.58219974 2.49132096 60.97325897 2.49761391 C44.95511256 2.5665363 28.71696572 4.83754199 16.515625 16.328125 C6.84045829 27.00073158 2.85940602 40.28577858 2.83886719 54.46118164 C2.83390228 55.28973663 2.82893738 56.11829163 2.82382202 56.97195435 C2.8092709 59.7013636 2.80240865 62.43071465 2.796875 65.16015625 C2.79263393 66.56731305 2.79263393 66.56731305 2.78830719 68.00289726 C2.77333963 72.97157953 2.764096 77.94023297 2.75976562 82.90893555 C2.75429803 88.01040503 2.73029922 93.11160533 2.70179367 98.21299076 C2.68305035 102.16213213 2.67795541 106.11121031 2.67642975 110.06039238 C2.67342682 111.93922833 2.6654794 113.81806381 2.65224457 115.69685555 C2.56799977 128.58011986 3.82535474 139.70977468 8 152 C7.01 151.67 6.02 151.34 5 151 C5 150.34 5 149.68 5 149 C3.68 149 2.36 149 1 149 C-0.35114557 146.29770885 -0.12283264 144.20551586 -0.12025452 141.17880249 C-0.12162918 139.93917252 -0.12300385 138.69954254 -0.12442017 137.42234802 C-0.12088079 136.04116797 -0.11724598 134.65998817 -0.11352539 133.27880859 C-0.11324344 131.83025616 -0.1134014 130.38170359 -0.1139679 128.93315125 C-0.11425557 124.99330024 -0.10836371 121.05347949 -0.10139394 117.11363554 C-0.09515538 112.99898652 -0.0945562 108.88433686 -0.09336853 104.76968384 C-0.0902567 96.97468933 -0.0820453 89.17970879 -0.07201904 81.38472044 C-0.06085331 72.51180974 -0.05534629 63.63889837 -0.05032361 54.76598239 C-0.03986257 36.51064699 -0.02226598 18.25532462 0 0 Z " fill="#FBFBFB" transform="translate(0,0)"/>
<path d="M0 0 C3.6578218 2.03993908 5.66946174 3.50419262 8 7 C8.33894033 11.64087533 7.53938827 15.17406171 5 19.0625 C0.93450309 21.68813342 -2.28373727 21.93983497 -7 21 C-10.49890004 18.88608123 -11.70578686 17.88263941 -13 14 C-13.88910303 7.22058942 -13.88910303 7.22058942 -11.6484375 4.14453125 C-7.9780871 0.74096844 -5.13103101 -1.09170873 0 0 Z " fill="#070707" transform="translate(140,32)"/>
<path d="M0 0 C0.944767 0.0038269 1.889534 0.00765381 2.8629303 0.01159668 C4.41976784 0.03389343 4.41976784 0.03389343 6.00805664 0.05664062 C7.1043187 0.06473755 8.20058075 0.07283447 9.33006287 0.08117676 C13.02635022 0.11286202 16.7221495 0.16147608 20.41821289 0.21289062 C21.72977356 0.22932617 23.04133423 0.24576172 24.39263916 0.26269531 C33.5297557 0.37752623 42.66626545 0.52247345 51.80279541 0.67645264 C55.49814454 0.73827825 59.19353189 0.7977316 62.88891602 0.85742188 C70.0653863 0.97367196 77.24181212 1.09241801 84.41821289 1.21289062 C84.41821289 1.54289063 84.41821289 1.87289063 84.41821289 2.21289062 C83.51778259 2.21875687 82.61735229 2.22462311 81.68963623 2.23066711 C73.15784057 2.28883753 64.62629994 2.36105151 56.09475327 2.44860554 C51.7097537 2.49312245 47.32484305 2.5324184 42.93969727 2.55932617 C38.69901369 2.58554723 34.45867582 2.62607865 30.21820831 2.67607689 C28.60934028 2.69261962 27.00041263 2.70421159 25.39147186 2.71050453 C16.91678724 2.74696915 9.08787802 3.079758 0.92120361 5.67228699 C-1.91133701 6.28406783 -3.80740561 5.96332626 -6.58178711 5.21289062 C-6.91178711 4.22289062 -7.24178711 3.23289063 -7.58178711 2.21289062 C-4.38929046 0.08455953 -3.65049501 -0.03253733 0 0 Z " fill="#D1D1D1" transform="translate(35.581787109375,-0.212890625)"/>
<path d="M0 0 C0.33 0 0.66 0 1 0 C1.00586624 0.87315353 1.01173248 1.74630707 1.01777649 2.6459198 C1.07599447 10.92723368 1.14823443 19.20828615 1.23571491 27.4893446 C1.2801947 31.74539944 1.31949819 36.00136347 1.34643555 40.25756836 C1.37269446 44.37506779 1.41325077 48.49221345 1.46318626 52.60949135 C1.47970394 54.17008329 1.49131119 55.73073619 1.49761391 57.29140282 C1.55020197 69.13045645 3.15718883 79.74689493 7 91 C6.01 90.67 5.02 90.34 4 90 C4 89.34 4 88.68 4 88 C2.68 88 1.36 88 0 88 C-1.70303976 84.59392049 -1.1206176 80.70658974 -1.09375 76.9609375 C-1.09016479 76.00045502 -1.08657959 75.03997253 -1.08288574 74.05038452 C-1.01042109 60.30639017 -0.76587144 46.56351077 -0.53643799 32.82141113 C-0.47480381 29.10622236 -0.41523721 25.39100042 -0.35546875 21.67578125 C-0.23894128 14.45048789 -0.12021922 7.22523298 0 0 Z " fill="#CCCCCC" transform="translate(1,61)"/>
<path d="M0 0 C0.5669458 0.05534912 1.1338916 0.11069824 1.71801758 0.16772461 C14.8043409 1.4330387 27.86511686 2.42364254 41 3 C41 3.33 41 3.66 41 4 C27.8 4 14.6 4 1 4 C0.67 2.68 0.34 1.36 0 0 Z " fill="#F2F2F2" transform="translate(39,176)"/>
<path d="M0 0 C0.67611328 -0.01224609 1.35222656 -0.02449219 2.04882812 -0.03710938 C3.80497427 -0.0423516 5.56061122 0.06517877 7.3125 0.1875 C9.3125 2.1875 9.3125 2.1875 9.3125 4.1875 C2.0525 3.5275 -5.2075 2.8675 -12.6875 2.1875 C-12.6875 1.8575 -12.6875 1.5275 -12.6875 1.1875 C-8.4289514 0.15787026 -4.37400978 0.02142022 0 0 Z " fill="#F0F0F0" transform="translate(132.6875,-0.1875)"/>
<path d="M0 0 C0 0.99 0 1.98 0 3 C-5.61 3 -11.22 3 -17 3 C-17.33 2.34 -17.66 1.68 -18 1 C-11.96445452 0.30739642 -6.07593562 -0.11251733 0 0 Z " fill="#EFEFEF" transform="translate(141,177)"/>
<path d="M0 0 C0.66 0.33 1.32 0.66 2 1 C-3.0940919 8.68490153 -3.0940919 8.68490153 -6.875 10 C-7.57625 10 -8.2775 10 -9 10 C-7.61811547 6.78956118 -6.07578097 4.95063635 -3.375 2.75 C-2.74335937 2.22921875 -2.11171875 1.7084375 -1.4609375 1.171875 C-0.73777344 0.59179688 -0.73777344 0.59179688 0 0 Z " fill="#E8E8E8" transform="translate(75,64)"/>
<path d="M0 0 C-2.35277269 2.72426311 -4.62496331 3.8141763 -8 5 C-8 2 -8 2 -7 0 C-4.0262656 -1.09036928 -3.11592499 -1.03864166 0 0 Z " fill="#EEEEEE" transform="translate(108,113)"/>
<path d="M0 0 C0.99 0.33 1.98 0.66 3 1 C4.1875 4.0625 4.1875 4.0625 5 7 C2.03 6.505 2.03 6.505 -1 6 C-1 2 -1 2 0 0 Z " fill="#EDEDED" transform="translate(155,33)"/>
<path d="M0 0 C0.625 1.875 0.625 1.875 1 4 C-1.65271553 6.65271553 -3.45673535 7.6372059 -7 9 C-5.44499019 5.18315774 -2.96404505 2.80804268 0 0 Z " fill="#EBEBEB" transform="translate(31,24)"/>
<path d="M0 0 C-1.07543783 0.98783194 -2.16073217 1.96493943 -3.25 2.9375 C-4.15492187 3.75541016 -4.15492187 3.75541016 -5.078125 4.58984375 C-7.08467305 6.06212799 -8.57002449 6.57529189 -11 7 C-9.91072362 3.73217086 -9.31652071 3.18062667 -6.625 1.25 C-6.01914063 0.80140625 -5.41328125 0.3528125 -4.7890625 -0.109375 C-3 -1 -3 -1 0 0 Z " fill="#EAEAEA" transform="translate(124,124)"/>
<path d="M0 0 C0.66 0.33 1.32 0.66 2 1 C1.8125 2.8125 1.8125 2.8125 1 5 C-1.5625 6.75 -1.5625 6.75 -4 8 C-3.50168276 4.31245243 -2.89932357 2.39509338 0 0 Z " fill="#EDEDED" transform="translate(12,16)"/>
<path d="M0 0 C0.66 0.99 1.32 1.98 2 3 C1.34 3 0.68 3 0 3 C-0.103125 3.639375 -0.20625 4.27875 -0.3125 4.9375 C-0.539375 5.618125 -0.76625 6.29875 -1 7 C-1.99 7.33 -2.98 7.66 -4 8 C-2.87548273 5.0280615 -1.77706209 2.66559313 0 0 Z " fill="#E6E6E6" transform="translate(130,111)"/>
<path d="M0 0 C2.31 0.33 4.62 0.66 7 1 C7.33 1.99 7.66 2.98 8 4 C5.69 4 3.38 4 1 4 C0.67 2.68 0.34 1.36 0 0 Z " fill="#EBEBEB" transform="translate(39,176)"/>
</svg>
